<mxfile host="app.diagrams.net" agent="Mozilla/5.0 (Macintosh; Intel Mac OS X 10_15_7) AppleWebKit/537.36 (KHTML, like Gecko) Chrome/130.0.0.0 Safari/537.36" version="24.9.1">
  <diagram name="Page-1" id="VoOn5563TyHWxJpli1Hy">
    <mxGraphModel dx="745" dy="402" grid="0" gridSize="10" guides="1" tooltips="1" connect="1" arrows="1" fold="1" page="1" pageScale="1" pageWidth="850" pageHeight="1100" math="0" shadow="0">
      <root>
        <mxCell id="0" />
        <mxCell id="1" parent="0" />
        <mxCell id="UuUJFhtZJ2ZxAK62DzjZ-1" value="" style="shape=actor;whiteSpace=wrap;html=1;" vertex="1" parent="1">
          <mxGeometry x="80" y="335" width="40" height="60" as="geometry" />
        </mxCell>
        <mxCell id="UuUJFhtZJ2ZxAK62DzjZ-3" value="Backend" style="swimlane;whiteSpace=wrap;html=1;dashed=1;" vertex="1" parent="1">
          <mxGeometry x="160" y="310" width="130" height="230" as="geometry" />
        </mxCell>
        <mxCell id="UuUJFhtZJ2ZxAK62DzjZ-5" value="" style="aspect=fixed;sketch=0;html=1;dashed=0;whitespace=wrap;verticalLabelPosition=bottom;verticalAlign=top;fillColor=#2875E2;strokeColor=#ffffff;points=[[0.005,0.63,0],[0.1,0.2,0],[0.9,0.2,0],[0.5,0,0],[0.995,0.63,0],[0.72,0.99,0],[0.5,1,0],[0.28,0.99,0]];shape=mxgraph.kubernetes.icon2;prIcon=api" vertex="1" parent="UuUJFhtZJ2ZxAK62DzjZ-3">
          <mxGeometry x="35" y="40" width="50" height="48" as="geometry" />
        </mxCell>
        <mxCell id="UuUJFhtZJ2ZxAK62DzjZ-6" value="&lt;pre&gt;&lt;font style=&quot;font-size: 6px;&quot;&gt;&amp;lt;BE_BASE_URL&amp;gt;/magic-search&lt;/font&gt;&lt;/pre&gt;" style="text;html=1;align=center;verticalAlign=middle;resizable=0;points=[];autosize=1;strokeColor=none;fillColor=none;" vertex="1" parent="UuUJFhtZJ2ZxAK62DzjZ-3">
          <mxGeometry x="-8" y="7" width="120" height="50" as="geometry" />
        </mxCell>
        <mxCell id="UuUJFhtZJ2ZxAK62DzjZ-22" value="" style="aspect=fixed;sketch=0;html=1;dashed=0;whitespace=wrap;verticalLabelPosition=bottom;verticalAlign=top;fillColor=#2875E2;strokeColor=#ffffff;points=[[0.005,0.63,0],[0.1,0.2,0],[0.9,0.2,0],[0.5,0,0],[0.995,0.63,0],[0.72,0.99,0],[0.5,1,0],[0.28,0.99,0]];shape=mxgraph.kubernetes.icon2;prIcon=api" vertex="1" parent="UuUJFhtZJ2ZxAK62DzjZ-3">
          <mxGeometry x="30" y="100" width="50" height="48" as="geometry" />
        </mxCell>
        <mxCell id="UuUJFhtZJ2ZxAK62DzjZ-24" value="&lt;pre&gt;&lt;font style=&quot;font-size: 6px;&quot;&gt;&amp;lt;BE_BASE_URL&amp;gt;/curate-hotel-list&lt;/font&gt;&lt;/pre&gt;" style="text;html=1;align=center;verticalAlign=middle;resizable=0;points=[];autosize=1;strokeColor=none;fillColor=none;" vertex="1" parent="UuUJFhtZJ2ZxAK62DzjZ-3">
          <mxGeometry x="-10" y="130" width="140" height="50" as="geometry" />
        </mxCell>
        <mxCell id="UuUJFhtZJ2ZxAK62DzjZ-37" value="" style="endArrow=classic;html=1;rounded=0;" edge="1" parent="UuUJFhtZJ2ZxAK62DzjZ-3" target="UuUJFhtZJ2ZxAK62DzjZ-36">
          <mxGeometry width="50" height="50" relative="1" as="geometry">
            <mxPoint x="60" y="170" as="sourcePoint" />
            <mxPoint x="170" y="200" as="targetPoint" />
            <Array as="points">
              <mxPoint x="60" y="205" />
            </Array>
          </mxGeometry>
        </mxCell>
        <mxCell id="UuUJFhtZJ2ZxAK62DzjZ-42" value="&lt;font style=&quot;font-size: 8px;&quot;&gt;query&lt;/font&gt;" style="text;html=1;align=center;verticalAlign=middle;resizable=0;points=[];autosize=1;strokeColor=none;fillColor=none;" vertex="1" parent="UuUJFhtZJ2ZxAK62DzjZ-3">
          <mxGeometry x="80" y="27" width="40" height="30" as="geometry" />
        </mxCell>
        <mxCell id="UuUJFhtZJ2ZxAK62DzjZ-50" value="&lt;font style=&quot;font-size: 6px;&quot;&gt;extracted&amp;nbsp;&lt;/font&gt;&lt;div&gt;&lt;font style=&quot;font-size: 6px;&quot;&gt;info&lt;/font&gt;&lt;/div&gt;" style="text;html=1;align=center;verticalAlign=middle;resizable=0;points=[];autosize=1;strokeColor=none;fillColor=none;" vertex="1" parent="UuUJFhtZJ2ZxAK62DzjZ-3">
          <mxGeometry x="81" y="109" width="50" height="40" as="geometry" />
        </mxCell>
        <mxCell id="UuUJFhtZJ2ZxAK62DzjZ-86" value="&lt;font style=&quot;font-size: 8px;&quot;&gt;hotels&lt;/font&gt;" style="text;html=1;align=center;verticalAlign=middle;resizable=0;points=[];autosize=1;strokeColor=none;fillColor=none;" vertex="1" parent="UuUJFhtZJ2ZxAK62DzjZ-3">
          <mxGeometry x="90" y="60" width="40" height="30" as="geometry" />
        </mxCell>
        <mxCell id="UuUJFhtZJ2ZxAK62DzjZ-7" value="&lt;font style=&quot;font-size: 8px;&quot;&gt;query&lt;/font&gt;" style="text;html=1;align=center;verticalAlign=middle;resizable=0;points=[];autosize=1;strokeColor=none;fillColor=none;" vertex="1" parent="1">
          <mxGeometry x="125" y="340" width="40" height="30" as="geometry" />
        </mxCell>
        <mxCell id="UuUJFhtZJ2ZxAK62DzjZ-12" value="AI" style="swimlane;whiteSpace=wrap;html=1;strokeColor=default;dashed=1;" vertex="1" parent="1">
          <mxGeometry x="307" y="310" width="200" height="280" as="geometry" />
        </mxCell>
        <mxCell id="UuUJFhtZJ2ZxAK62DzjZ-64" value="" style="rounded=0;whiteSpace=wrap;html=1;fillColor=none;dashed=1;dashPattern=1 2;" vertex="1" parent="UuUJFhtZJ2ZxAK62DzjZ-12">
          <mxGeometry x="22.5" y="110" width="120" height="60" as="geometry" />
        </mxCell>
        <mxCell id="UuUJFhtZJ2ZxAK62DzjZ-29" style="edgeStyle=orthogonalEdgeStyle;rounded=0;orthogonalLoop=1;jettySize=auto;html=1;exitX=0.5;exitY=1;exitDx=0;exitDy=0;exitPerimeter=0;" edge="1" parent="UuUJFhtZJ2ZxAK62DzjZ-12" source="UuUJFhtZJ2ZxAK62DzjZ-13" target="UuUJFhtZJ2ZxAK62DzjZ-17">
          <mxGeometry relative="1" as="geometry" />
        </mxCell>
        <mxCell id="UuUJFhtZJ2ZxAK62DzjZ-13" value="" style="aspect=fixed;sketch=0;html=1;dashed=0;whitespace=wrap;verticalLabelPosition=bottom;verticalAlign=top;fillColor=#2875E2;strokeColor=#ffffff;points=[[0.005,0.63,0],[0.1,0.2,0],[0.9,0.2,0],[0.5,0,0],[0.995,0.63,0],[0.72,0.99,0],[0.5,1,0],[0.28,0.99,0]];shape=mxgraph.kubernetes.icon2;prIcon=api" vertex="1" parent="UuUJFhtZJ2ZxAK62DzjZ-12">
          <mxGeometry x="28" y="40" width="50" height="48" as="geometry" />
        </mxCell>
        <mxCell id="UuUJFhtZJ2ZxAK62DzjZ-16" value="&lt;pre&gt;&lt;font style=&quot;font-size: 6px;&quot;&gt;&amp;lt;AI_BASE_URL&amp;gt;/magic-search&lt;/font&gt;&lt;/pre&gt;" style="text;html=1;align=center;verticalAlign=middle;resizable=0;points=[];autosize=1;strokeColor=none;fillColor=none;" vertex="1" parent="UuUJFhtZJ2ZxAK62DzjZ-12">
          <mxGeometry x="-9" y="7" width="120" height="50" as="geometry" />
        </mxCell>
        <mxCell id="UuUJFhtZJ2ZxAK62DzjZ-57" style="edgeStyle=orthogonalEdgeStyle;rounded=0;orthogonalLoop=1;jettySize=auto;html=1;entryX=0;entryY=0.5;entryDx=0;entryDy=0;" edge="1" parent="UuUJFhtZJ2ZxAK62DzjZ-12" source="UuUJFhtZJ2ZxAK62DzjZ-17" target="UuUJFhtZJ2ZxAK62DzjZ-56">
          <mxGeometry relative="1" as="geometry" />
        </mxCell>
        <mxCell id="UuUJFhtZJ2ZxAK62DzjZ-17" value="" style="sketch=0;outlineConnect=0;fontColor=#232F3E;gradientColor=none;fillColor=#ED7100;strokeColor=none;dashed=0;verticalLabelPosition=bottom;verticalAlign=top;align=center;html=1;fontSize=12;fontStyle=0;aspect=fixed;pointerEvents=1;shape=mxgraph.aws4.ec2_aws_microservice_extractor_for_net;rotation=0;" vertex="1" parent="UuUJFhtZJ2ZxAK62DzjZ-12">
          <mxGeometry x="29" y="110" width="48" height="48" as="geometry" />
        </mxCell>
        <mxCell id="UuUJFhtZJ2ZxAK62DzjZ-21" value="&lt;font style=&quot;font-size: 8px;&quot;&gt;extractor&lt;/font&gt;" style="text;html=1;align=center;verticalAlign=middle;resizable=0;points=[];autosize=1;strokeColor=none;fillColor=none;" vertex="1" parent="UuUJFhtZJ2ZxAK62DzjZ-12">
          <mxGeometry x="27" y="145" width="50" height="30" as="geometry" />
        </mxCell>
        <mxCell id="UuUJFhtZJ2ZxAK62DzjZ-46" style="edgeStyle=orthogonalEdgeStyle;rounded=0;orthogonalLoop=1;jettySize=auto;html=1;" edge="1" parent="UuUJFhtZJ2ZxAK62DzjZ-12" source="UuUJFhtZJ2ZxAK62DzjZ-36" target="UuUJFhtZJ2ZxAK62DzjZ-41">
          <mxGeometry relative="1" as="geometry">
            <Array as="points">
              <mxPoint x="53" y="230" />
            </Array>
          </mxGeometry>
        </mxCell>
        <mxCell id="UuUJFhtZJ2ZxAK62DzjZ-36" value="" style="sketch=0;pointerEvents=1;shadow=0;dashed=0;html=1;strokeColor=#b85450;fillColor=#f8cecc;labelPosition=center;verticalLabelPosition=bottom;verticalAlign=top;outlineConnect=0;align=center;shape=mxgraph.office.communications.queue_viewer;" vertex="1" parent="UuUJFhtZJ2ZxAK62DzjZ-12">
          <mxGeometry x="36.88" y="190" width="32.25" height="30" as="geometry" />
        </mxCell>
        <mxCell id="UuUJFhtZJ2ZxAK62DzjZ-80" style="edgeStyle=orthogonalEdgeStyle;rounded=0;orthogonalLoop=1;jettySize=auto;html=1;exitX=1;exitY=0.5;exitDx=0;exitDy=0;" edge="1" parent="UuUJFhtZJ2ZxAK62DzjZ-12" source="UuUJFhtZJ2ZxAK62DzjZ-41" target="UuUJFhtZJ2ZxAK62DzjZ-61">
          <mxGeometry relative="1" as="geometry">
            <mxPoint x="183" y="90" as="targetPoint" />
            <Array as="points">
              <mxPoint x="172" y="232" />
            </Array>
          </mxGeometry>
        </mxCell>
        <mxCell id="UuUJFhtZJ2ZxAK62DzjZ-41" value="" style="shape=image;html=1;verticalAlign=top;verticalLabelPosition=bottom;labelBackgroundColor=#ffffff;imageAspect=0;aspect=fixed;image=https://cdn2.iconfinder.com/data/icons/videoplayer/1000/Loop-128.png;imageBorder=none;" vertex="1" parent="UuUJFhtZJ2ZxAK62DzjZ-12">
          <mxGeometry x="89" y="195.5" width="73.5" height="73.5" as="geometry" />
        </mxCell>
        <mxCell id="UuUJFhtZJ2ZxAK62DzjZ-47" value="" style="shape=image;verticalLabelPosition=bottom;labelBackgroundColor=default;verticalAlign=top;aspect=fixed;imageAspect=0;image=https://static-00.iconduck.com/assets.00/openai-icon-2021x2048-4rpe5x7n.png;" vertex="1" parent="UuUJFhtZJ2ZxAK62DzjZ-12">
          <mxGeometry x="117.37" y="227" width="16.75" height="16.97" as="geometry" />
        </mxCell>
        <mxCell id="UuUJFhtZJ2ZxAK62DzjZ-56" value="" style="shape=image;html=1;verticalAlign=top;verticalLabelPosition=bottom;labelBackgroundColor=#ffffff;imageAspect=0;aspect=fixed;image=https://cdn4.iconfinder.com/data/icons/aiga-symbol-signs/444/aiga_information-128.png" vertex="1" parent="UuUJFhtZJ2ZxAK62DzjZ-12">
          <mxGeometry x="103.5" y="125" width="18" height="18" as="geometry" />
        </mxCell>
        <mxCell id="UuUJFhtZJ2ZxAK62DzjZ-58" value="&lt;font style=&quot;font-size: 8px;&quot;&gt;condenser&lt;/font&gt;" style="text;html=1;align=center;verticalAlign=middle;resizable=0;points=[];autosize=1;strokeColor=none;fillColor=none;" vertex="1" parent="UuUJFhtZJ2ZxAK62DzjZ-12">
          <mxGeometry x="82.5" y="131" width="60" height="30" as="geometry" />
        </mxCell>
        <mxCell id="UuUJFhtZJ2ZxAK62DzjZ-61" value="" style="sketch=0;pointerEvents=1;shadow=0;dashed=0;html=1;strokeColor=#82b366;fillColor=#d5e8d4;labelPosition=center;verticalLabelPosition=bottom;verticalAlign=top;outlineConnect=0;align=center;shape=mxgraph.office.communications.queue_viewer;" vertex="1" parent="UuUJFhtZJ2ZxAK62DzjZ-12">
          <mxGeometry x="155" y="55" width="34.25" height="30" as="geometry" />
        </mxCell>
        <mxCell id="UuUJFhtZJ2ZxAK62DzjZ-63" style="edgeStyle=orthogonalEdgeStyle;rounded=0;orthogonalLoop=1;jettySize=auto;html=1;entryX=0.995;entryY=0.63;entryDx=0;entryDy=0;entryPerimeter=0;" edge="1" parent="UuUJFhtZJ2ZxAK62DzjZ-12" source="UuUJFhtZJ2ZxAK62DzjZ-61" target="UuUJFhtZJ2ZxAK62DzjZ-13">
          <mxGeometry relative="1" as="geometry" />
        </mxCell>
        <mxCell id="UuUJFhtZJ2ZxAK62DzjZ-70" value="&lt;font style=&quot;font-size: 6px;&quot;&gt;100 hotels&lt;/font&gt;" style="text;html=1;align=center;verticalAlign=middle;resizable=0;points=[];autosize=1;strokeColor=none;fillColor=none;" vertex="1" parent="UuUJFhtZJ2ZxAK62DzjZ-12">
          <mxGeometry x="-6" y="210.99999999999997" width="50" height="30" as="geometry" />
        </mxCell>
        <mxCell id="UuUJFhtZJ2ZxAK62DzjZ-72" value="&lt;font style=&quot;font-size: 6px;&quot;&gt;Descriptions,&amp;nbsp;&lt;/font&gt;&lt;span style=&quot;font-size: 6px; background-color: initial;&quot;&gt;Property reports,&amp;nbsp;&lt;/span&gt;&lt;div&gt;&lt;span style=&quot;font-size: 6px; background-color: initial;&quot;&gt;Reviews&lt;/span&gt;&lt;/div&gt;" style="text;html=1;align=left;verticalAlign=middle;resizable=0;points=[];autosize=1;strokeColor=none;fillColor=none;" vertex="1" parent="UuUJFhtZJ2ZxAK62DzjZ-12">
          <mxGeometry x="4.370000000000001" y="227" width="110" height="40" as="geometry" />
        </mxCell>
        <mxCell id="UuUJFhtZJ2ZxAK62DzjZ-84" value="" style="endArrow=classic;html=1;rounded=0;entryX=0.5;entryY=0;entryDx=0;entryDy=0;exitX=0.857;exitY=1.03;exitDx=0;exitDy=0;exitPerimeter=0;" edge="1" parent="UuUJFhtZJ2ZxAK62DzjZ-12">
          <mxGeometry width="50" height="50" relative="1" as="geometry">
            <mxPoint x="125.34000000000003" y="171.80000000000007" as="sourcePoint" />
            <mxPoint x="125.75" y="195.5" as="targetPoint" />
          </mxGeometry>
        </mxCell>
        <mxCell id="UuUJFhtZJ2ZxAK62DzjZ-85" value="&lt;font style=&quot;font-size: 6px;&quot;&gt;Hotels match&lt;/font&gt;" style="text;html=1;align=center;verticalAlign=middle;resizable=0;points=[];autosize=1;strokeColor=none;fillColor=none;" vertex="1" parent="UuUJFhtZJ2ZxAK62DzjZ-12">
          <mxGeometry x="143.12" y="30" width="60" height="30" as="geometry" />
        </mxCell>
        <mxCell id="UuUJFhtZJ2ZxAK62DzjZ-15" value="" style="endArrow=classic;html=1;rounded=0;exitX=0.9;exitY=0.2;exitDx=0;exitDy=0;exitPerimeter=0;entryX=0.1;entryY=0.2;entryDx=0;entryDy=0;entryPerimeter=0;" edge="1" parent="1" source="UuUJFhtZJ2ZxAK62DzjZ-5" target="UuUJFhtZJ2ZxAK62DzjZ-13">
          <mxGeometry width="50" height="50" relative="1" as="geometry">
            <mxPoint x="400" y="430" as="sourcePoint" />
            <mxPoint x="450" y="380" as="targetPoint" />
          </mxGeometry>
        </mxCell>
        <mxCell id="UuUJFhtZJ2ZxAK62DzjZ-31" value="" style="endArrow=classic;html=1;rounded=0;entryX=0.995;entryY=0.63;entryDx=0;entryDy=0;entryPerimeter=0;exitX=0.039;exitY=0.423;exitDx=0;exitDy=0;exitPerimeter=0;" edge="1" parent="1" source="UuUJFhtZJ2ZxAK62DzjZ-17" target="UuUJFhtZJ2ZxAK62DzjZ-22">
          <mxGeometry width="50" height="50" relative="1" as="geometry">
            <mxPoint x="330" y="490" as="sourcePoint" />
            <mxPoint x="380" y="440" as="targetPoint" />
          </mxGeometry>
        </mxCell>
        <mxCell id="UuUJFhtZJ2ZxAK62DzjZ-33" value="&lt;font style=&quot;font-size: 8px;&quot;&gt;Algolia&lt;/font&gt;" style="shape=cylinder3;whiteSpace=wrap;html=1;boundedLbl=1;backgroundOutline=1;size=6.8421052631579755;" vertex="1" parent="1">
          <mxGeometry x="80" y="420" width="40" height="40" as="geometry" />
        </mxCell>
        <mxCell id="UuUJFhtZJ2ZxAK62DzjZ-34" value="" style="endArrow=classic;startArrow=classic;html=1;rounded=0;entryX=0.005;entryY=0.63;entryDx=0;entryDy=0;entryPerimeter=0;exitX=1;exitY=0.5;exitDx=0;exitDy=0;exitPerimeter=0;" edge="1" parent="1" source="UuUJFhtZJ2ZxAK62DzjZ-33" target="UuUJFhtZJ2ZxAK62DzjZ-22">
          <mxGeometry width="50" height="50" relative="1" as="geometry">
            <mxPoint x="270" y="510" as="sourcePoint" />
            <mxPoint x="320" y="460" as="targetPoint" />
          </mxGeometry>
        </mxCell>
        <mxCell id="UuUJFhtZJ2ZxAK62DzjZ-35" value="&lt;font style=&quot;font-size: 8px;&quot;&gt;hotels&lt;/font&gt;" style="text;html=1;align=center;verticalAlign=middle;whiteSpace=wrap;rounded=0;" vertex="1" parent="1">
          <mxGeometry x="115" y="416" width="60" height="30" as="geometry" />
        </mxCell>
        <mxCell id="UuUJFhtZJ2ZxAK62DzjZ-44" value="" style="endArrow=classic;html=1;rounded=0;exitX=0.9;exitY=0.5;exitDx=0;exitDy=0;exitPerimeter=0;entryX=0.083;entryY=0.321;entryDx=0;entryDy=0;entryPerimeter=0;" edge="1" parent="1" source="UuUJFhtZJ2ZxAK62DzjZ-1" target="UuUJFhtZJ2ZxAK62DzjZ-5">
          <mxGeometry width="50" height="50" relative="1" as="geometry">
            <mxPoint x="260" y="500" as="sourcePoint" />
            <mxPoint x="310" y="450" as="targetPoint" />
          </mxGeometry>
        </mxCell>
        <mxCell id="UuUJFhtZJ2ZxAK62DzjZ-65" style="edgeStyle=orthogonalEdgeStyle;rounded=0;orthogonalLoop=1;jettySize=auto;html=1;exitX=0.005;exitY=0.63;exitDx=0;exitDy=0;exitPerimeter=0;entryX=1;entryY=0.75;entryDx=0;entryDy=0;" edge="1" parent="1" source="UuUJFhtZJ2ZxAK62DzjZ-5" target="UuUJFhtZJ2ZxAK62DzjZ-1">
          <mxGeometry relative="1" as="geometry" />
        </mxCell>
        <mxCell id="UuUJFhtZJ2ZxAK62DzjZ-66" value="&lt;font style=&quot;font-size: 8px;&quot;&gt;answer&lt;/font&gt;" style="text;html=1;align=center;verticalAlign=middle;resizable=0;points=[];autosize=1;strokeColor=none;fillColor=none;" vertex="1" parent="1">
          <mxGeometry x="120" y="370" width="50" height="30" as="geometry" />
        </mxCell>
        <mxCell id="UuUJFhtZJ2ZxAK62DzjZ-68" style="edgeStyle=orthogonalEdgeStyle;rounded=0;orthogonalLoop=1;jettySize=auto;html=1;exitX=0.005;exitY=0.63;exitDx=0;exitDy=0;exitPerimeter=0;entryX=0.995;entryY=0.63;entryDx=0;entryDy=0;entryPerimeter=0;" edge="1" parent="1" source="UuUJFhtZJ2ZxAK62DzjZ-13" target="UuUJFhtZJ2ZxAK62DzjZ-5">
          <mxGeometry relative="1" as="geometry" />
        </mxCell>
        <mxCell id="UuUJFhtZJ2ZxAK62DzjZ-77" value="" style="shape=image;verticalLabelPosition=bottom;labelBackgroundColor=default;verticalAlign=top;aspect=fixed;imageAspect=0;image=https://images.seeklogo.com/logo-png/48/2/pinecone-logo-png_seeklogo-482364.png;clipPath=inset(39.33% 77% 39.67% 2.33%);" vertex="1" parent="1">
          <mxGeometry x="420.29" y="620" width="24.92" height="25.32" as="geometry" />
        </mxCell>
        <mxCell id="UuUJFhtZJ2ZxAK62DzjZ-78" value="" style="endArrow=classic;startArrow=classic;html=1;rounded=0;entryX=0.5;entryY=1;entryDx=0;entryDy=0;exitX=0.5;exitY=0;exitDx=0;exitDy=0;" edge="1" parent="1" source="UuUJFhtZJ2ZxAK62DzjZ-77" target="UuUJFhtZJ2ZxAK62DzjZ-41">
          <mxGeometry width="50" height="50" relative="1" as="geometry">
            <mxPoint x="480" y="580" as="sourcePoint" />
            <mxPoint x="530" y="530" as="targetPoint" />
          </mxGeometry>
        </mxCell>
        <mxCell id="UuUJFhtZJ2ZxAK62DzjZ-79" value="&lt;font style=&quot;font-size: 10px;&quot;&gt;Pinecone DB&lt;/font&gt;" style="text;html=1;align=center;verticalAlign=middle;resizable=0;points=[];autosize=1;strokeColor=none;fillColor=none;" vertex="1" parent="1">
          <mxGeometry x="392.75" y="635" width="80" height="30" as="geometry" />
        </mxCell>
        <mxCell id="UuUJFhtZJ2ZxAK62DzjZ-87" value="&lt;font style=&quot;font-size: 8px;&quot;&gt;&lt;b&gt;Question condenser&lt;/b&gt;&lt;/font&gt;" style="text;html=1;align=center;verticalAlign=middle;resizable=0;points=[];autosize=1;strokeColor=none;fillColor=none;" vertex="1" parent="1">
          <mxGeometry x="360" y="398" width="100" height="30" as="geometry" />
        </mxCell>
      </root>
    </mxGraphModel>
  </diagram>
</mxfile>
